<?xml version="1.0" standalone="no"?><!DOCTYPE svg PUBLIC "-//W3C//DTD SVG 1.1//EN" "http://www.w3.org/Graphics/SVG/1.1/DTD/svg11.dtd"><svg class="icon" width="200px" height="200.00px" viewBox="0 0 1024 1024" version="1.1" xmlns="http://www.w3.org/2000/svg"><path fill="#000000" d="M695.765333 981.333333h-276.053333c-26.794667 0-47.317333-21.077333-47.317333-48.64V739.84c0-29.184 6.314667-56.746667 17.365333-81.066667-129.365333-48.64-214.528-150.784-214.528-264.277333 0-53.504 17.365333-103.765333 50.474667-147.498667-12.629333-42.154667-15.786667-95.658667-12.629334-157.269333C216.234667 62.122667 236.8 42.666667 261.973333 42.666667c14.208 0 134.101333 1.621333 203.52 64.853333a504.448 504.448 0 0 1 184.533334 0C717.866667 44.288 837.717333 42.666667 853.504 42.666667c25.216 0 45.738667 19.456 47.317333 45.397333 4.693333 61.610667 0 115.114667-12.629333 157.269333C921.301333 290.688 938.666667 340.906667 938.666667 392.832c0 113.493333-85.162667 215.637333-214.528 264.277333a207.786667 207.786667 0 0 1 17.365333 81.066667v192.896c1.578667 27.562667-20.48 50.261333-45.738667 50.261333z m-228.693333-97.28h181.333333V739.84c0-27.562667-12.586667-53.504-33.109333-71.338667-14.165333-11.349333-20.48-30.805333-15.786667-50.261333 4.778667-17.834667 18.944-32.426667 36.309334-35.669333 123.050667-24.32 208.213333-102.144 208.213333-189.696 0-47.018667-25.258667-82.688-45.738667-105.386667-14.208-14.549333-17.365333-35.626667-7.893333-55.082667 6.314667-12.970667 15.786667-40.533333 15.786667-89.173333-39.466667 6.485333-85.205333 19.456-102.528 45.397333-11.093333 16.213333-31.573333 24.32-50.474667 19.456a393.045333 393.045333 0 0 0-194.005333 0c-18.944 4.864-37.888-3.242667-50.474667-19.456-17.365333-25.941333-63.146667-38.912-102.528-45.397333 1.578667 48.64 9.429333 76.202667 15.786667 89.173333 7.850667 17.834667 4.693333 40.533333-7.936 55.082667-20.48 22.698667-45.738667 58.368-45.738667 105.386667 0 87.552 85.205333 163.754667 208.213333 189.696 17.365333 3.242667 31.573333 17.834667 36.266667 35.669333 4.736 17.834667-1.578667 37.290667-15.786667 50.261333a95.104 95.104 0 0 0-33.109333 71.296v144.298667h3.157333z"  /><path fill="#000000" d="M403.968 788.394667c-212.949333 0-309.162667-194.56-313.898667-202.666667-11.050667-24.32-1.578667-53.461333 20.48-64.810667 23.68-11.349333 52.053333-1.621333 63.146667 21.077334 3.114667 6.485333 80.426667 157.269333 241.28 149.162666 26.837333-1.621333 48.896 19.456 48.896 46.976 1.578667 27.562667-18.901333 50.261333-45.738667 50.261334h-14.165333z"  /></svg>