<?xml version="1.0" standalone="no"?><!DOCTYPE svg PUBLIC "-//W3C//DTD SVG 1.1//EN" "http://www.w3.org/Graphics/SVG/1.1/DTD/svg11.dtd"><svg class="icon" width="200px" height="200.00px" viewBox="0 0 1024 1024" version="1.1" xmlns="http://www.w3.org/2000/svg"><path fill="#000000" d="M682.666667 298.666667c-166.4 0-298.666667 132.266667-298.666667 298.666666v298.666667c0 25.6 17.066667 42.666667 42.666667 42.666667h170.666666c25.6 0 42.666667-17.066667 42.666667-42.666667v-298.666667c0-25.6 17.066667-42.666667 42.666667-42.666666s42.666667 17.066667 42.666666 42.666666v298.666667c0 25.6 17.066667 42.666667 42.666667 42.666667h170.666667c25.6 0 42.666667-17.066667 42.666666-42.666667v-298.666667c0-166.4-132.266667-298.666667-298.666666-298.666666z m213.333333 554.666666h-85.333333v-256c0-72.533333-55.466667-128-128-128s-128 55.466667-128 128v256h-85.333334v-256c0-119.466667 93.866667-213.333333 213.333334-213.333333s213.333333 93.866667 213.333333 213.333333v256zM256 341.333333H85.333333c-25.6 0-42.666667 17.066667-42.666666 42.666667v512c0 25.6 17.066667 42.666667 42.666666 42.666667h170.666667c25.6 0 42.666667-17.066667 42.666667-42.666667V384c0-25.6-17.066667-42.666667-42.666667-42.666667zM213.333333 853.333333H128V426.666667h85.333333v426.666666zM170.666667 42.666667C98.133333 42.666667 42.666667 98.133333 42.666667 170.666667s55.466667 128 128 128 128-55.466667 128-128-55.466667-128-128-128z m0 170.666666c-25.6 0-42.666667-17.066667-42.666667-42.666666s17.066667-42.666667 42.666667-42.666667 42.666667 17.066667 42.666666 42.666667-17.066667 42.666667-42.666666 42.666666z" /></svg>