<svg xmlns="http://www.w3.org/2000/svg" version="1.1" xmlns:xlink="http://www.w3.org/1999/xlink"
  xmlns:svgjs="http://svgjs.dev/svgjs" viewBox="0 0 800 100" preserveAspectRatio="xMidYMid slice">
  <defs>
    <pattern id="pppixelate-pattern" width="20" height="20" patternUnits="userSpaceOnUse"
      patternTransform="translate(178 0) scale(5.8) rotate(27)" shape-rendering="crispEdges">
      <rect width="1" height="1" x="5" y="5" fill="hsl(0, 0%, 0%)"></rect>
      <rect width="1" height="1" x="6" y="5" fill="hsl(0, 0%, 0%)"></rect>
      <rect width="1" height="1" x="7" y="5" fill="hsl(0, 0%, 0%)"></rect>
      <rect width="1" height="1" x="8" y="5" fill="hsl(0, 0%, 0%)"></rect>
      <rect width="1" height="1" x="9" y="5" fill="hsl(0, 0%, 0%)"></rect>
      <rect width="1" height="1" x="10" y="5" fill="hsl(0, 0%, 0%)"></rect>
      <rect width="1" height="1" x="11" y="5" fill="hsl(0, 0%, 0%)"></rect>
      <rect width="1" height="1" x="12" y="5" fill="hsl(0, 0%, 0%)"></rect>
      <rect width="1" height="1" x="13" y="5" fill="hsl(0, 0%, 0%)"></rect>
      <rect width="1" height="1" x="14" y="5" fill="hsl(0, 0%, 0%)"></rect>
      <rect width="1" height="1" x="15" y="5" fill="hsl(0, 0%, 0%)"></rect>
      <rect width="1" height="1" x="1" y="6" fill="hsla(288, 78%, 69%, 1.00)"></rect>
      <rect width="1" height="1" x="2" y="6" fill="hsla(288, 78%, 69%, 1.00)"></rect>
      <rect width="1" height="1" x="3" y="6" fill="hsla(288, 78%, 69%, 1.00)"></rect>
      <rect width="1" height="1" x="4" y="6" fill="hsla(288, 78%, 69%, 1.00)"></rect>
      <rect width="1" height="1" x="5" y="6" fill="hsl(0, 0%, 0%)"></rect>
      <rect width="1" height="1" x="6" y="6" fill="hsla(288, 78%, 69%, 1.00)"></rect>
      <rect width="1" height="1" x="7" y="6" fill="hsla(288, 78%, 69%, 1.00)"></rect>
      <rect width="1" height="1" x="8" y="6" fill="hsla(288, 78%, 69%, 1.00)"></rect>
      <rect width="1" height="1" x="9" y="6" fill="hsla(288, 78%, 69%, 1.00)"></rect>
      <rect width="1" height="1" x="10" y="6" fill="hsla(288, 78%, 69%, 1.00)"></rect>
      <rect width="1" height="1" x="11" y="6" fill="hsla(288, 78%, 69%, 1.00)"></rect>
      <rect width="1" height="1" x="12" y="6" fill="hsla(288, 78%, 69%, 1.00)"></rect>
      <rect width="1" height="1" x="13" y="6" fill="hsla(288, 78%, 69%, 1.00)"></rect>
      <rect width="1" height="1" x="15" y="6" fill="hsl(0, 0%, 0%)"></rect>
      <rect width="1" height="1" x="2" y="7" fill="hsla(288, 78%, 69%, 1.00)"></rect>
      <rect width="1" height="1" x="3" y="7" fill="hsla(288, 78%, 69%, 1.00)"></rect>
      <rect width="1" height="1" x="4" y="7" fill="hsla(288, 78%, 69%, 1.00)"></rect>
      <rect width="1" height="1" x="5" y="7" fill="hsl(0, 0%, 0%)"></rect>
      <rect width="1" height="1" x="6" y="7" fill="hsla(288, 78%, 69%, 1.00)"></rect>
      <rect width="1" height="1" x="7" y="7" fill="hsla(288, 78%, 69%, 1.00)"></rect>
      <rect width="1" height="1" x="8" y="7" fill="hsla(288, 78%, 69%, 1.00)"></rect>
      <rect width="1" height="1" x="9" y="7" fill="hsla(288, 78%, 69%, 1.00)"></rect>
      <rect width="1" height="1" x="10" y="7" fill="hsla(288, 78%, 69%, 1.00)"></rect>
      <rect width="1" height="1" x="11" y="7" fill="hsla(288, 78%, 69%, 1.00)"></rect>
      <rect width="1" height="1" x="12" y="7" fill="hsla(288, 78%, 69%, 1.00)"></rect>
      <rect width="1" height="1" x="14" y="7" fill="hsl(0, 0%, 0%)"></rect>
      <rect width="1" height="1" x="3" y="8" fill="hsla(288, 78%, 69%, 1.00)"></rect>
      <rect width="1" height="1" x="4" y="8" fill="hsla(288, 78%, 69%, 1.00)"></rect>
      <rect width="1" height="1" x="5" y="8" fill="hsl(0, 0%, 0%)"></rect>
      <rect width="1" height="1" x="6" y="8" fill="hsla(288, 78%, 69%, 1.00)"></rect>
      <rect width="1" height="1" x="7" y="8" fill="hsla(288, 78%, 69%, 1.00)"></rect>
      <rect width="1" height="1" x="8" y="8" fill="hsla(288, 78%, 69%, 1.00)"></rect>
      <rect width="1" height="1" x="9" y="8" fill="hsla(288, 78%, 69%, 1.00)"></rect>
      <rect width="1" height="1" x="10" y="8" fill="hsla(288, 78%, 69%, 1.00)"></rect>
      <rect width="1" height="1" x="11" y="8" fill="hsla(288, 78%, 69%, 1.00)"></rect>
      <rect width="1" height="1" x="14" y="8" fill="hsl(0, 0%, 0%)"></rect>
      <rect width="1" height="1" x="4" y="9" fill="hsla(288, 78%, 69%, 1.00)"></rect>
      <rect width="1" height="1" x="5" y="9" fill="hsl(0, 0%, 0%)"></rect>
      <rect width="1" height="1" x="6" y="9" fill="hsl(0, 0%, 0%)"></rect>
      <rect width="1" height="1" x="7" y="9" fill="hsl(0, 0%, 0%)"></rect>
      <rect width="1" height="1" x="8" y="9" fill="hsl(0, 0%, 0%)"></rect>
      <rect width="1" height="1" x="9" y="9" fill="hsla(288, 78%, 69%, 1.00)"></rect>
      <rect width="1" height="1" x="10" y="9" fill="hsla(288, 78%, 69%, 1.00)"></rect>
      <rect width="1" height="1" x="13" y="9" fill="hsl(0, 0%, 0%)"></rect>
      <rect width="1" height="1" x="5" y="10" fill="hsla(288, 78%, 69%, 1.00)"></rect>
      <rect width="1" height="1" x="6" y="10" fill="hsla(288, 78%, 69%, 1.00)"></rect>
      <rect width="1" height="1" x="7" y="10" fill="hsla(288, 78%, 69%, 1.00)"></rect>
      <rect width="1" height="1" x="8" y="10" fill="hsl(0, 0%, 0%)"></rect>
      <rect width="1" height="1" x="9" y="10" fill="hsla(288, 78%, 69%, 1.00)"></rect>
      <rect width="1" height="1" x="13" y="10" fill="hsl(0, 0%, 0%)"></rect>
      <rect width="1" height="1" x="14" y="10" fill="hsl(0, 0%, 0%)"></rect>
      <rect width="1" height="1" x="15" y="10" fill="hsl(0, 0%, 0%)"></rect>
      <rect width="1" height="1" x="5" y="11" fill="hsla(288, 78%, 69%, 1.00)"></rect>
      <rect width="1" height="1" x="6" y="11" fill="hsla(288, 78%, 69%, 1.00)"></rect>
      <rect width="1" height="1" x="7" y="11" fill="hsl(0, 0%, 0%)"></rect>
      <rect width="1" height="1" x="8" y="11" fill="hsla(288, 78%, 69%, 1.00)"></rect>
      <rect width="1" height="1" x="9" y="11" fill="hsla(288, 78%, 69%, 1.00)"></rect>
      <rect width="1" height="1" x="15" y="11" fill="hsl(0, 0%, 0%)"></rect>
      <rect width="1" height="1" x="5" y="12" fill="hsla(288, 78%, 69%, 1.00)"></rect>
      <rect width="1" height="1" x="6" y="12" fill="hsla(288, 78%, 69%, 1.00)"></rect>
      <rect width="1" height="1" x="7" y="12" fill="hsl(0, 0%, 0%)"></rect>
      <rect width="1" height="1" x="8" y="12" fill="hsla(288, 78%, 69%, 1.00)"></rect>
      <rect width="1" height="1" x="9" y="12" fill="hsla(288, 78%, 69%, 1.00)"></rect>
      <rect width="1" height="1" x="15" y="12" fill="hsl(0, 0%, 0%)"></rect>
      <rect width="1" height="1" x="5" y="13" fill="hsla(288, 78%, 69%, 1.00)"></rect>
      <rect width="1" height="1" x="6" y="13" fill="hsl(0, 0%, 0%)"></rect>
      <rect width="1" height="1" x="7" y="13" fill="hsla(288, 78%, 69%, 1.00)"></rect>
      <rect width="1" height="1" x="8" y="13" fill="hsla(288, 78%, 69%, 1.00)"></rect>
      <rect width="1" height="1" x="9" y="13" fill="hsla(288, 78%, 69%, 1.00)"></rect>
      <rect width="1" height="1" x="15" y="13" fill="hsl(0, 0%, 0%)"></rect>
      <rect width="1" height="1" x="5" y="14" fill="hsla(288, 78%, 69%, 1.00)"></rect>
      <rect width="1" height="1" x="6" y="14" fill="hsl(0, 0%, 0%)"></rect>
      <rect width="1" height="1" x="7" y="14" fill="hsl(0, 0%, 0%)"></rect>
      <rect width="1" height="1" x="8" y="14" fill="hsl(0, 0%, 0%)"></rect>
      <rect width="1" height="1" x="9" y="14" fill="hsl(0, 0%, 0%)"></rect>
      <rect width="1" height="1" x="10" y="14" fill="hsl(0, 0%, 0%)"></rect>
      <rect width="1" height="1" x="11" y="14" fill="hsl(0, 0%, 0%)"></rect>
      <rect width="1" height="1" x="12" y="14" fill="hsl(0, 0%, 0%)"></rect>
      <rect width="1" height="1" x="13" y="14" fill="hsl(0, 0%, 0%)"></rect>
      <rect width="1" height="1" x="14" y="14" fill="hsl(0, 0%, 0%)"></rect>
      <rect width="1" height="1" x="15" y="14" fill="hsl(0, 0%, 0%)"></rect>
      <rect width="1" height="1" x="5" y="15" fill="hsla(288, 78%, 69%, 1.00)"></rect>
      <rect width="1" height="1" x="6" y="15" fill="hsla(288, 78%, 69%, 1.00)"></rect>
      <rect width="1" height="1" x="7" y="15" fill="hsla(288, 78%, 69%, 1.00)"></rect>
      <rect width="1" height="1" x="8" y="15" fill="hsla(288, 78%, 69%, 1.00)"></rect>
      <rect width="1" height="1" x="9" y="15" fill="hsla(288, 78%, 69%, 1.00)"></rect>
    </pattern>
  </defs>
  <rect width="100%" height="100%" fill="url(#pppixelate-pattern)"></rect>
</svg>