<svg xmlns="http://www.w3.org/2000/svg" version="1.1" xmlns:xlink="http://www.w3.org/1999/xlink" xmlns:svgjs="http://svgjs.dev/svgjs" viewBox="0 0 800 800" opacity="0.65" width="800" height="800"><g stroke-width="4.75" stroke="#98d2ebff" fill="none"><line x1="0" y1="0" x2="200" y2="200"></line><line x1="200" y1="0" x2="400" y2="200"></line><line x1="400" y1="0" x2="600" y2="200"></line><line x1="600" y1="0" x2="800" y2="200"></line><line x1="800" y1="0" x2="1000" y2="200"></line><line x1="0" y1="200" x2="200" y2="400"></line><line x1="200" y1="200" x2="400" y2="400"></line><line x1="400" y1="200" x2="600" y2="400"></line><line x1="600" y1="200" x2="800" y2="400"></line><line x1="800" y1="200" x2="1000" y2="400"></line><line x1="0" y1="400" x2="200" y2="600"></line><line x1="200" y1="400" x2="400" y2="600"></line><line x1="400" y1="400" x2="600" y2="600"></line><line x1="600" y1="400" x2="800" y2="600"></line><line x1="800" y1="400" x2="1000" y2="600"></line><line x1="0" y1="600" x2="200" y2="800"></line><line x1="200" y1="600" x2="400" y2="800"></line><line x1="400" y1="600" x2="600" y2="800"></line><line x1="600" y1="600" x2="800" y2="800"></line><line x1="800" y1="600" x2="1000" y2="800"></line><line x1="0" y1="800" x2="200" y2="1000"></line><line x1="200" y1="800" x2="400" y2="1000"></line><line x1="400" y1="800" x2="600" y2="1000"></line><line x1="600" y1="800" x2="800" y2="1000"></line><line x1="800" y1="800" x2="1000" y2="1000"></line></g></svg>